<?xml version="1.0" standalone="no"?>
<!DOCTYPE svg PUBLIC "-//W3C//DTD SVG 20010904//EN"
 "http://www.w3.org/TR/2001/REC-SVG-20010904/DTD/svg10.dtd">
<svg version="1.0" xmlns="http://www.w3.org/2000/svg"
 width="590.000000pt" height="590.000000pt" viewBox="0 0 590.000000 590.000000"
 preserveAspectRatio="xMidYMid meet">
<metadata>
Created by potrace 1.14, written by Peter Selinger 2001-2017
</metadata>
<g transform="translate(0.000000,590.000000) scale(0.100000,-0.100000)"
fill="#000000" stroke="none">
<path d="M0 2950 l0 -2950 2950 0 2950 0 0 2950 0 2950 -2950 0 -2950 0 0
-2950z m4033 1682 l117 -117 0 -950 0 -950 -117 -117 -118 -118 -950 0 -950 0
-117 117 -118 118 0 950 0 950 117 117 118 118 950 0 950 0 118 -118z m-392
-2562 c23 -13 26 -62 4 -80 -8 -7 -26 -12 -40 -12 -14 0 -32 5 -40 12 -18 15
-20 61 -3 78 15 15 53 16 79 2z m-1846 -172 c26 -90 51 -174 55 -188 9 -30 8
-33 55 130 20 69 43 146 51 173 l16 47 60 0 c44 0 59 -3 56 -12 -3 -7 -42
-122 -88 -255 l-83 -243 -57 0 -58 0 -26 73 c-58 162 -146 421 -146 428 0 5
26 9 59 9 l58 0 48 -162z m581 -21 c29 -98 54 -180 56 -183 3 -2 29 80 58 181
l54 185 62 0 62 0 -65 -187 c-36 -104 -75 -217 -87 -253 l-23 -65 -59 -3 -59
-3 -87 256 -88 256 62 -3 62 -3 52 -178z m647 5 c33 -95 63 -169 68 -165 4 4
33 83 64 176 l58 167 73 0 74 0 0 -255 0 -255 -56 0 -57 0 5 180 c3 99 4 180
3 180 -1 0 -31 -81 -66 -180 l-64 -181 -38 3 -39 3 -59 165 c-32 91 -61 170
-64 175 -2 6 -2 -70 1 -167 l6 -178 -56 0 -56 0 0 255 0 256 72 -3 72 -3 59
-173z m1035 32 c19 -13 22 -13 22 1 0 11 12 15 51 15 l51 0 -4 -207 c-3 -237
-10 -259 -83 -297 -54 -28 -146 -29 -199 0 -22 11 -41 25 -43 30 -1 5 9 22 22
39 22 27 25 28 42 13 57 -49 153 -17 153 52 0 20 -1 20 -26 4 -34 -23 -109
-21 -143 3 -14 11 -36 39 -49 64 -20 38 -23 55 -20 126 4 74 8 87 35 120 48
61 129 76 191 37z m-398 -174 l0 -190 -55 0 -55 0 0 190 0 190 55 0 55 0 0
-190z"/>
<path d="M2252 3568 l3 -713 710 0 710 0 3 610 c2 336 0 656 -3 713 l-7 102
-709 0 -709 0 2 -712z"/>
<path d="M3961 1831 c-24 -24 -36 -79 -27 -127 12 -63 65 -92 117 -64 16 9 19
22 19 97 0 70 -3 88 -17 99 -26 20 -70 17 -92 -5z"/>
</g>
</svg>
